<svg width="2019" height="345" viewBox="0 0 2019 345" fill="none" xmlns="http://www.w3.org/2000/svg">
<path d="M259.647 116.376H243.181V216.606H290.575V201.858H259.647V116.376Z" fill="#EF3B2D"/>
<path d="M348.706 158.902C346.605 155.561 343.623 152.937 339.757 151.027C335.892 149.118 332.001 148.163 328.088 148.163C323.026 148.163 318.398 149.094 314.198 150.955C309.997 152.816 306.394 155.372 303.387 158.616C300.38 161.862 298.04 165.609 296.371 169.855C294.699 174.104 293.865 178.568 293.865 183.244C293.865 188.018 294.699 192.504 296.371 196.703C298.04 200.905 300.38 204.628 303.387 207.872C306.394 211.118 309.996 213.671 314.198 215.532C318.397 217.393 323.026 218.324 328.088 218.324C332.001 218.324 335.892 217.369 339.757 215.461C343.623 213.553 346.606 210.928 348.706 207.586V216.607H364.313V149.882H348.706V158.902ZM347.275 191.405C346.32 193.983 344.984 196.226 343.266 198.135C341.547 200.045 339.471 201.572 337.037 202.717C334.602 203.863 331.904 204.435 328.946 204.435C325.986 204.435 323.313 203.863 320.927 202.717C318.54 201.571 316.489 200.045 314.771 198.135C313.052 196.226 311.739 193.983 310.833 191.405C309.924 188.828 309.473 186.107 309.473 183.244C309.473 180.38 309.924 177.659 310.833 175.082C311.738 172.505 313.052 170.263 314.771 168.353C316.489 166.445 318.541 164.916 320.927 163.771C323.313 162.625 325.986 162.053 328.946 162.053C331.904 162.053 334.602 162.625 337.037 163.771C339.471 164.917 341.547 166.445 343.266 168.353C344.984 170.263 346.32 172.505 347.275 175.082C348.228 177.659 348.707 180.38 348.707 183.244C348.706 186.107 348.228 188.828 347.275 191.405Z" fill="#EF3B2D"/>
<path d="M475.569 158.902C473.468 155.561 470.486 152.937 466.62 151.027C462.755 149.118 458.864 148.163 454.951 148.163C449.889 148.163 445.261 149.094 441.061 150.955C436.86 152.816 433.257 155.372 430.25 158.616C427.243 161.862 424.903 165.609 423.234 169.855C421.562 174.104 420.728 178.568 420.728 183.244C420.728 188.018 421.562 192.504 423.234 196.703C424.903 200.905 427.243 204.628 430.25 207.872C433.257 211.118 436.859 213.671 441.061 215.532C445.26 217.393 449.889 218.324 454.951 218.324C458.864 218.324 462.755 217.369 466.62 215.461C470.486 213.553 473.469 210.928 475.569 207.586V216.607H491.176V149.882H475.569V158.902ZM474.137 191.405C473.182 193.983 471.846 196.226 470.128 198.135C468.409 200.045 466.333 201.572 463.899 202.717C461.464 203.863 458.766 204.435 455.808 204.435C452.848 204.435 450.175 203.863 447.789 202.717C445.402 201.571 443.351 200.045 441.633 198.135C439.914 196.226 438.601 193.983 437.695 191.405C436.786 188.828 436.335 186.107 436.335 183.244C436.335 180.38 436.786 177.659 437.695 175.082C438.6 172.505 439.914 170.263 441.633 168.353C443.351 166.445 445.403 164.916 447.789 163.771C450.175 162.625 452.848 162.053 455.808 162.053C458.766 162.053 461.464 162.625 463.899 163.771C466.333 164.917 468.409 166.445 470.128 168.353C471.846 170.263 473.182 172.505 474.137 175.082C475.09 177.659 475.569 180.38 475.569 183.244C475.569 186.107 475.09 188.828 474.137 191.405Z" fill="#EF3B2D"/>
<path d="M662.387 116.376H646.781V216.606H662.387V116.376Z" fill="#EF3B2D"/>
<path d="M376.628 216.606H392.235V165.238H419.011V149.882H376.628V216.606Z" fill="#EF3B2D"/>
<path d="M553.748 149.882L534.132 200.978L514.516 149.882H498.708L524.325 216.606H543.939L569.556 149.882H553.748Z" fill="#EF3B2D"/>
<path d="M603.595 148.166C584.483 148.166 569.356 163.872 569.356 183.245C569.356 204.661 583.997 218.324 605.595 218.324C617.683 218.324 625.401 213.702 634.829 203.636L624.285 195.478C624.279 195.486 616.327 205.927 604.453 205.927C590.651 205.927 584.841 194.8 584.841 189.043H636.618C639.338 167 624.846 148.166 603.595 148.166ZM584.882 177.446C585.002 176.162 586.799 160.562 603.471 160.562C620.142 160.562 622.168 176.16 622.284 177.446H584.882Z" fill="#EF3B2D"/>
<path d="M195.683 115.592C195.659 115.504 195.61 115.427 195.579 115.342C195.521 115.185 195.471 115.026 195.388 114.882C195.332 114.785 195.251 114.706 195.185 114.617C195.098 114.5 195.024 114.375 194.92 114.272C194.835 114.186 194.726 114.124 194.63 114.049C194.521 113.964 194.424 113.867 194.303 113.797C194.303 113.797 194.302 113.797 194.301 113.796C194.3 113.796 194.3 113.795 194.299 113.794L158.651 93.27C157.734 92.742 156.604 92.742 155.687 93.27L120.04 113.792C120.039 113.792 120.039 113.793 120.038 113.794C120.037 113.794 120.036 113.794 120.036 113.795C119.915 113.865 119.817 113.962 119.709 114.047C119.613 114.122 119.504 114.185 119.419 114.27C119.316 114.373 119.241 114.498 119.154 114.615C119.088 114.704 119.007 114.784 118.951 114.88C118.868 115.024 118.818 115.184 118.76 115.34C118.729 115.425 118.68 115.502 118.656 115.59C118.589 115.839 118.553 116.1 118.553 116.366V155.345L88.847 172.448V96.193C88.847 95.928 88.811 95.667 88.744 95.417C88.72 95.329 88.671 95.252 88.64 95.167C88.582 95.01 88.532 94.851 88.449 94.707C88.393 94.61 88.312 94.531 88.246 94.442C88.159 94.325 88.085 94.2 87.981 94.097C87.896 94.011 87.787 93.949 87.691 93.874C87.582 93.789 87.485 93.692 87.364 93.622C87.364 93.622 87.363 93.622 87.362 93.621C87.361 93.621 87.361 93.62 87.36 93.619L51.713 73.096C50.796 72.568 49.666 72.568 48.749 73.096L13.102 93.619C13.101 93.619 13.101 93.62 13.1 93.621C13.099 93.621 13.098 93.621 13.098 93.622C12.977 93.692 12.879 93.789 12.771 93.874C12.675 93.949 12.566 94.012 12.481 94.097C12.378 94.2 12.303 94.325 12.216 94.442C12.15 94.531 12.069 94.611 12.013 94.707C11.93 94.851 11.88 95.011 11.822 95.167C11.791 95.252 11.742 95.329 11.718 95.417C11.651 95.666 11.615 95.927 11.615 96.193V218.283C11.615 219.346 12.183 220.327 13.104 220.858L84.397 261.903C84.553 261.992 84.721 262.046 84.887 262.105C84.965 262.133 85.037 262.179 85.117 262.2C85.366 262.266 85.623 262.3 85.879 262.3C86.135 262.3 86.391 262.267 86.641 262.2C86.71 262.182 86.773 262.141 86.841 262.117C87.017 262.056 87.195 261.998 87.36 261.903L158.653 220.858C159.574 220.328 160.142 219.346 160.142 218.283V179.304L194.3 159.638C195.221 159.108 195.789 158.126 195.789 157.063V116.366C195.786 116.102 195.751 115.841 195.683 115.592ZM85.87 214.867L56.222 198.088L87.358 180.162C87.358 180.162 87.358 180.162 87.359 180.161L121.523 160.492L151.197 177.576L129.425 190.004L85.87 214.867ZM154.199 138.608V172.449L141.724 165.267L124.493 155.347V121.506L136.968 128.688L154.199 138.608ZM157.169 99.273L186.862 116.368L157.169 133.463L127.476 116.368L157.169 99.273ZM65.675 185.789L53.2 192.971V118.433L70.431 108.513L82.906 101.331V175.868L65.675 185.789ZM50.229 79.098L79.922 96.193L50.229 113.288L20.536 96.193L50.229 79.098ZM17.553 101.332L30.028 108.514L47.259 118.434V198.11C47.259 198.112 47.26 198.113 47.26 198.115C47.26 198.117 47.259 198.119 47.259 198.121C47.259 198.235 47.291 198.342 47.304 198.454C47.321 198.6 47.325 198.748 47.363 198.888C47.364 198.89 47.364 198.893 47.365 198.895C47.397 199.012 47.459 199.117 47.505 199.229C47.556 199.353 47.593 199.484 47.661 199.6C47.662 199.603 47.663 199.606 47.665 199.609C47.726 199.714 47.814 199.8 47.887 199.897C47.968 200.002 48.036 200.117 48.131 200.211C48.134 200.214 48.136 200.218 48.139 200.221C48.223 200.304 48.329 200.363 48.423 200.436C48.529 200.519 48.625 200.614 48.743 200.683C48.747 200.685 48.752 200.686 48.756 200.688C48.76 200.69 48.763 200.694 48.767 200.696L82.906 220.017V254.192L17.554 216.567V101.332H17.553ZM154.199 216.567L88.847 254.192V220.01L137.246 192.382L154.199 182.705V216.567ZM189.845 155.347L160.139 172.449V138.608L177.37 128.688L189.845 121.506V155.347Z" fill="#EF3B2D"/>
<path d="M738.515 213.7C755.015 213.7 769.799 205.252 769.799 187.564C769.799 175.948 763.067 167.236 751.979 163.936C760.691 160.108 765.839 153.376 765.839 143.74C765.839 127.108 752.639 119.98 737.855 119.98H709.211V213.7H738.515ZM717.263 206.308V168.16H738.515C751.055 168.16 761.351 173.572 761.351 187.432C761.351 201.16 750.527 206.308 738.515 206.308H717.263ZM737.855 127.372C748.547 127.372 757.391 132.256 757.391 144.004C757.391 156.016 748.943 160.768 737.855 160.768H717.263V127.372H737.855Z" fill="#EF3B2D"/>
<path d="M786.788 213.7H794.708V116.02H786.788V213.7Z" fill="#EF3B2D"/>
<path d="M843.417 215.68C863.877 215.68 876.417 199.048 876.417 179.908C876.417 160.24 863.745 144.136 843.681 144.136C823.353 144.136 810.681 160.768 810.681 179.908C810.681 199.312 823.485 215.68 843.417 215.68ZM843.549 151.396C859.653 151.396 868.365 165.256 868.365 179.908C868.365 194.956 859.257 208.42 843.549 208.42C827.577 208.42 818.733 194.428 818.733 179.908C818.733 164.992 827.841 151.396 843.549 151.396Z" fill="#EF3B2D"/>
<path d="M921.65 213.7C932.739 213.7 941.583 208.552 946.863 198.784V208.684C946.863 224.392 938.282 235.876 922.178 235.876C912.542 235.876 904.886 231.916 899.21 223.996L893.139 228.088C899.739 238.12 910.563 243.004 922.311 243.004C943.167 243.004 954.783 228.22 954.783 208.684V146.116H947.786L947.127 159.052C942.243 149.548 932.342 144.136 921.783 144.136C902.378 144.136 889.443 160.504 889.443 178.852C889.443 197.596 902.51 213.7 921.65 213.7ZM922.311 151.396C938.151 151.396 947.127 164.464 947.127 178.984C947.127 193.768 937.623 206.572 922.311 206.572C906.735 206.572 897.495 193.372 897.495 178.984C897.495 164.068 906.867 151.396 922.311 151.396Z" fill="#EF3B2D"/>
<path d="M1029.22 215.68C1045.58 215.68 1059.58 205.384 1059.58 188.488C1059.58 173.572 1049.54 165.52 1035.82 162.484L1029.48 161.032C1019.84 158.788 1009.68 154.564 1009.68 143.08C1009.68 131.86 1018.79 125.524 1029.22 125.524C1039.64 125.524 1046.9 131.464 1050.6 140.968L1057.99 137.932C1053.64 125.656 1042.42 118 1029.48 118C1014.56 118 1001.5 127.504 1001.5 142.948C1001.5 156.016 1009.81 164.464 1026.58 168.292L1032.91 169.744C1042.68 172.12 1051.26 177.136 1051.26 188.224C1051.26 200.632 1040.83 208.156 1029.22 208.156C1018.79 208.156 1010.47 202.348 1006.51 192.712L999.12 195.748C1004 208.288 1016.02 215.68 1029.22 215.68Z" fill="#EF3B2D"/>
<path d="M1067.49 146.116V152.716H1080.3V194.824C1080.3 206.968 1086.37 215.68 1099.17 215.68C1104.72 215.68 1109.47 214.228 1113.43 211.192L1110.26 205.12C1107.22 207.1 1103.26 208.42 1099.57 208.42C1091.52 208.42 1088.22 202.216 1088.22 194.824V152.716H1110.39V146.116H1088.22V123.544H1080.3V146.116H1067.49Z" fill="#EF3B2D"/>
<path d="M1123.42 194.824C1123.42 208.684 1135.43 215.68 1147.84 215.68C1157.21 215.68 1166.05 211.456 1170.54 202.876L1171.2 213.7H1178.06V171.856C1178.06 155.488 1168.16 144.268 1151.93 144.268C1140.97 144.268 1129.75 149.812 1125.92 160.504L1132.39 163.54C1136.09 155.356 1142.82 151.264 1151.66 151.264C1163.68 151.264 1170.41 160.504 1170.41 171.724V177.664C1164.86 175.156 1157.47 173.572 1151.27 173.572C1137.8 173.572 1123.42 179.512 1123.42 194.824ZM1131.34 194.692C1131.34 183.472 1142.03 179.908 1151.53 179.908C1158 179.908 1164.47 181.492 1170.41 184V187.696C1170.41 200.236 1160.77 209.212 1148.63 209.212C1139.65 209.212 1131.34 204.328 1131.34 194.692Z" fill="#EF3B2D"/>
<path d="M1197.1 146.116V213.7H1205.02V176.872C1205.02 164.596 1210.96 152.848 1224.42 152.848C1226.53 152.848 1228.78 152.848 1230.76 153.772L1231.81 146.38C1230.89 145.984 1229.83 145.72 1228.64 145.456C1227.32 145.324 1226 145.192 1224.55 145.192C1215.31 145.192 1208.18 150.472 1204.75 158.92L1204.22 146.116H1197.1Z" fill="#EF3B2D"/>
<path d="M1240.36 146.116V152.716H1253.16V194.824C1253.16 206.968 1259.23 215.68 1272.04 215.68C1277.58 215.68 1282.33 214.228 1286.29 211.192L1283.12 205.12C1280.09 207.1 1276.13 208.42 1272.43 208.42C1264.38 208.42 1261.08 202.216 1261.08 194.824V152.716H1283.26V146.116H1261.08V123.544H1253.16V146.116H1240.36Z" fill="#EF3B2D"/>
<path d="M1295.88 180.172C1295.88 200.368 1309.48 215.68 1329.68 215.68C1340.76 215.68 1351.46 210.664 1356.87 200.764L1350.53 197.068C1345.65 204.856 1338.65 208.684 1329.41 208.684C1312.91 208.684 1304.2 195.88 1303.8 180.7H1358.06V177.004C1358.06 158.92 1346.04 144.268 1327.7 144.268C1307.63 144.268 1295.88 161.692 1295.88 180.172ZM1327.7 151C1341.03 151 1349.08 162.088 1350.14 174.364H1304.2C1305.92 161.956 1314.5 151 1327.7 151Z" fill="#EF3B2D"/>
<path d="M1374.08 146.116V213.7H1382V176.872C1382 164.596 1387.94 152.848 1401.41 152.848C1403.52 152.848 1405.76 152.848 1407.74 153.772L1408.8 146.38C1407.88 145.984 1406.82 145.72 1405.63 145.456C1404.31 145.324 1402.99 145.192 1401.54 145.192C1392.3 145.192 1385.17 150.472 1381.74 158.92L1381.21 146.116H1374.08Z" fill="#EF3B2D"/>
<path d="M1448.65 127.504H1478.08V213.7H1486.4V127.504H1515.84V119.98H1448.65V127.504Z" fill="#EF3B2D"/>
<path d="M1518.12 180.172C1518.12 200.368 1531.71 215.68 1551.91 215.68C1563 215.68 1573.69 210.664 1579.1 200.764L1572.77 197.068C1567.88 204.856 1560.89 208.684 1551.65 208.684C1535.15 208.684 1526.43 195.88 1526.04 180.7H1580.29V177.004C1580.29 158.92 1568.28 144.268 1549.93 144.268C1529.87 144.268 1518.12 161.692 1518.12 180.172ZM1549.93 151C1563.26 151 1571.31 162.088 1572.37 174.364H1526.43C1528.15 161.956 1536.73 151 1549.93 151Z" fill="#EF3B2D"/>
<path d="M1596.32 146.116V213.7H1604.24V172.648C1604.24 160.9 1612.55 151.528 1624.43 151.528C1638.03 151.528 1642.12 162.22 1642.12 174.1V213.7H1650.04V172.648C1650.04 160.9 1658.36 151.528 1670.24 151.528C1683.57 151.528 1687.93 162.352 1687.93 174.1V213.7H1695.85V173.836C1695.85 157.732 1688.06 144.136 1670.9 144.136C1660.34 144.136 1651.23 149.812 1647.4 159.712C1643.97 149.812 1635.65 144.136 1625.23 144.136C1616.25 144.136 1608.07 148.624 1603.84 156.676L1603.45 146.116H1596.32Z" fill="#EF3B2D"/>
<path d="M1714.91 146.116V241.024H1722.83V201.16C1727.98 210.268 1737.35 215.68 1747.78 215.68C1767.71 215.68 1780.25 198.52 1780.25 179.908C1780.25 161.032 1767.58 144.136 1748.04 144.136C1737.09 144.136 1727.72 149.68 1722.57 159.448L1722.04 146.116H1714.91ZM1722.57 179.908C1722.57 164.992 1731.68 151.396 1747.38 151.396C1763.49 151.396 1772.2 165.256 1772.2 179.908C1772.2 194.956 1763.09 208.42 1747.38 208.42C1731.41 208.42 1722.57 194.428 1722.57 179.908Z" fill="#EF3B2D"/>
<path d="M1796.25 213.7H1804.17V116.02H1796.25V213.7Z" fill="#EF3B2D"/>
<path d="M1820.54 194.824C1820.54 208.684 1832.55 215.68 1844.96 215.68C1854.33 215.68 1863.18 211.456 1867.67 202.876L1868.33 213.7H1875.19V171.856C1875.19 155.488 1865.29 144.268 1849.05 144.268C1838.1 144.268 1826.88 149.812 1823.05 160.504L1829.52 163.54C1833.21 155.356 1839.95 151.264 1848.79 151.264C1860.8 151.264 1867.53 160.504 1867.53 171.724V177.664C1861.99 175.156 1854.6 173.572 1848.39 173.572C1834.93 173.572 1820.54 179.512 1820.54 194.824ZM1828.46 194.692C1828.46 183.472 1839.15 179.908 1848.66 179.908C1855.13 179.908 1861.59 181.492 1867.53 184V187.696C1867.53 200.236 1857.9 209.212 1845.75 209.212C1836.78 209.212 1828.46 204.328 1828.46 194.692Z" fill="#EF3B2D"/>
<path d="M1884.5 146.116V152.716H1897.3V194.824C1897.3 206.968 1903.38 215.68 1916.18 215.68C1921.72 215.68 1926.48 214.228 1930.44 211.192L1927.27 205.12C1924.23 207.1 1920.27 208.42 1916.58 208.42C1908.52 208.42 1905.22 202.216 1905.22 194.824V152.716H1927.4V146.116H1905.22V123.544H1897.3V146.116H1884.5Z" fill="#EF3B2D"/>
<path d="M1940.03 180.172C1940.03 200.368 1953.62 215.68 1973.82 215.68C1984.91 215.68 1995.6 210.664 2001.01 200.764L1994.68 197.068C1989.79 204.856 1982.8 208.684 1973.56 208.684C1957.06 208.684 1948.34 195.88 1947.95 180.7H2002.2V177.004C2002.2 158.92 1990.19 144.268 1971.84 144.268C1951.78 144.268 1940.03 161.692 1940.03 180.172ZM1971.84 151C1985.17 151 1993.22 162.088 1994.28 174.364H1948.34C1950.06 161.956 1958.64 151 1971.84 151Z" fill="#EF3B2D"/>
</svg>
